<svg width="114" height="29" viewBox="0 0 114 29" fill="none" xmlns="http://www.w3.org/2000/svg">
<path d="M33.5317 10.9355C30.7519 10.9355 28.5628 11.9466 27.2543 13.7616V12.1041C27.2406 11.8382 27.1254 11.5878 26.9325 11.4044C26.7396 11.2211 26.4837 11.1189 26.2177 11.1189C25.9517 11.1189 25.6958 11.2211 25.503 11.4044C25.3101 11.5878 25.1949 11.8382 25.1812 12.1041V27.8011C25.1949 28.067 25.3101 28.3174 25.503 28.5008C25.6958 28.6841 25.9517 28.7863 26.2177 28.7863C26.4837 28.7863 26.7396 28.6841 26.9325 28.5008C27.1254 28.3174 27.2406 28.067 27.2543 27.8011V19.3973C27.2543 16.2093 28.9106 12.803 33.5317 12.803C33.6543 12.803 33.7756 12.7788 33.8888 12.7319C34.002 12.685 34.1049 12.6162 34.1915 12.5295C34.2781 12.4428 34.3469 12.3399 34.3938 12.2266C34.4406 12.1133 34.4648 11.9919 34.4648 11.8692C34.4648 11.7466 34.4406 11.6252 34.3938 11.5119C34.3469 11.3986 34.2781 11.2957 34.1915 11.209C34.1049 11.1223 34.002 11.0535 33.8888 11.0066C33.7756 10.9596 33.6543 10.9355 33.5317 10.9355Z" fill="#8BB31D"/>
<path d="M44.4551 10.8995C41.3385 10.8995 39.4614 12.3167 38.4897 13.3858V2.78023C38.4759 2.51436 38.3607 2.26391 38.1679 2.08059C37.975 1.89726 37.7191 1.79504 37.4531 1.79504C37.1871 1.79504 36.9312 1.89726 36.7383 2.08059C36.5454 2.26391 36.4302 2.51436 36.4165 2.78023V21.6073C36.4165 26.2346 39.4227 29 44.4551 29C49.9431 29 52.9631 25.7788 52.9631 19.9332C52.9631 14.0875 49.9431 10.8995 44.4551 10.8995ZM38.4897 16.5739C38.7657 15.9965 40.4027 12.767 44.4551 12.767C48.7919 12.767 50.8043 15.0434 50.8043 19.9332C50.8043 24.823 48.7836 27.1325 44.4551 27.1325C42.2274 27.1325 38.4897 26.4142 38.4897 21.6073V16.5739Z" fill="#8BB31D"/>
<path d="M62.6525 10.8995C58.7353 10.8995 56.8002 12.8775 56.0052 14.0433C55.8719 14.2181 55.7983 14.4312 55.7954 14.6511C55.7957 14.7807 55.8219 14.9089 55.8724 15.0282C55.923 15.1475 55.9968 15.2555 56.0897 15.3458C56.1825 15.4362 56.2925 15.507 56.413 15.5542C56.5336 15.6015 56.6624 15.6241 56.7919 15.6208C56.9552 15.6219 57.1162 15.5827 57.2607 15.5065C57.4052 15.4304 57.5286 15.3197 57.6201 15.1843C58.4951 13.9604 59.6049 12.767 62.6525 12.767C64.6456 12.767 67.9886 13.3195 67.9886 16.9717V18.143H62.3764C57.5428 18.143 54.647 20.1707 54.647 23.5715C54.647 26.9722 57.3026 28.9641 61.9375 28.9641C64.4054 28.9641 66.5724 28.2126 67.9803 26.917V27.8148C67.9803 28.0793 68.0853 28.333 68.2722 28.52C68.4591 28.7071 68.7125 28.8121 68.9768 28.8121C69.2411 28.8121 69.4946 28.7071 69.6815 28.52C69.8684 28.333 69.9734 28.0793 69.9734 27.8148V17.2562C69.9817 13.1565 67.3785 10.8995 62.6525 10.8995ZM62.3764 19.9746H67.9886V22.5355C67.9886 25.6876 64.952 27.0966 61.9458 27.0966C59.5828 27.0966 56.7671 26.486 56.7671 23.5715C56.7671 20.3227 60.6898 19.9746 62.3764 19.9746Z" fill="#8BB31D"/>
<path d="M81.6362 10.8995C78.8757 10.8995 76.9958 11.9879 75.9081 13.2449V12.1288C75.8944 11.863 75.7792 11.6125 75.5863 11.4292C75.3934 11.2459 75.1376 11.1436 74.8715 11.1436C74.6055 11.1436 74.3496 11.2459 74.1568 11.4292C73.9639 11.6125 73.8487 11.863 73.835 12.1288V27.8259C73.8487 28.0918 73.9639 28.3422 74.1568 28.5255C74.3496 28.7089 74.6055 28.8111 74.8715 28.8111C75.1376 28.8111 75.3934 28.7089 75.5863 28.5255C75.7792 28.3422 75.8944 28.0918 75.9081 27.8259V18.0408C75.9081 15.4163 77.6693 12.767 81.5975 12.767C86.4312 12.767 87.0523 15.3942 87.0523 17.6844V27.8148C87.0661 28.0807 87.1812 28.3312 87.3741 28.5145C87.567 28.6978 87.8229 28.8 88.0889 28.8C88.3549 28.8 88.6108 28.6978 88.8037 28.5145C88.9966 28.3312 89.1118 28.0807 89.1255 27.8148V17.6844C89.1255 13.1814 86.6051 10.8995 81.6362 10.8995Z" fill="#8BB31D"/>
<path d="M94.211 4.97925C93.4767 4.97925 93.0571 5.42403 93.0571 6.19755C93.0571 6.97108 93.4767 7.41586 94.211 7.41586C94.9453 7.41586 95.3677 6.97108 95.3677 6.19755C95.3677 5.42403 94.9453 4.97925 94.211 4.97925Z" fill="#8BB31D"/>
<path d="M94.211 11.115C93.9419 11.1142 93.6831 11.2185 93.4897 11.4058C93.2963 11.5932 93.1837 11.8486 93.1758 12.1178V27.8149C93.1895 28.0808 93.3047 28.3312 93.4976 28.5145C93.6905 28.6979 93.9463 28.8001 94.2124 28.8001C94.4784 28.8001 94.7342 28.6979 94.9271 28.5145C95.12 28.3312 95.2352 28.0808 95.2489 27.8149V12.1289C95.2439 11.8573 95.1321 11.5986 94.9378 11.4088C94.7436 11.2191 94.4824 11.1135 94.211 11.115Z" fill="#8BB31D"/>
<path d="M106.156 10.8995C102.242 10.8995 100.307 12.8775 99.5115 14.0433C99.3763 14.2173 99.3017 14.4307 99.2989 14.6511C99.2996 14.7808 99.3262 14.9091 99.377 15.0284C99.4279 15.1477 99.502 15.2557 99.595 15.346C99.6881 15.4363 99.7982 15.5071 99.919 15.5543C100.04 15.6015 100.169 15.6241 100.298 15.6208C100.461 15.6214 100.622 15.582 100.767 15.5059C100.911 15.4298 101.035 15.3193 101.126 15.1843C102.001 13.9604 103.108 12.767 106.156 12.767C108.149 12.767 111.492 13.3195 111.492 16.9717V18.143H105.883C101.046 18.143 98.1533 20.1707 98.1533 23.5715C98.1533 26.9722 100.812 28.9641 105.444 28.9641C107.928 28.9641 110.082 28.2154 111.487 26.917V27.8148C111.5 28.0706 111.611 28.3115 111.797 28.4878C111.982 28.6641 112.229 28.7624 112.485 28.7624C112.741 28.7624 112.987 28.6641 113.172 28.4878C113.358 28.3115 113.469 28.0706 113.482 27.8148V17.2562C113.488 13.1565 110.882 10.8995 106.156 10.8995ZM105.88 19.9746H111.489V22.5355C111.489 25.6876 108.453 27.0966 105.447 27.0966C103.084 27.0966 100.268 26.486 100.268 23.5715C100.265 20.3227 104.196 19.9746 105.883 19.9746H105.88Z" fill="#8BB31D"/>
<path d="M23.8423 8.42975L20.8499 6.26111V1.20557C20.8575 1.05009 20.8335 0.894685 20.7793 0.748778C20.7251 0.602871 20.6419 0.469505 20.5346 0.356769C20.4273 0.244033 20.2983 0.154282 20.1554 0.0929534C20.0124 0.0316253 19.8585 0 19.7029 0C19.5474 0 19.3934 0.0316253 19.2505 0.0929534C19.1075 0.154282 18.9785 0.244033 18.8712 0.356769C18.764 0.469505 18.6807 0.602871 18.6265 0.748778C18.5723 0.894685 18.5483 1.05009 18.5559 1.20557V4.6008L12.8085 0.434804C12.6157 0.295464 12.3838 0.220469 12.146 0.220469C11.9081 0.220469 11.6763 0.295464 11.4835 0.434804L0.485549 8.31648C0.236446 8.49865 0.0682139 8.77091 0.0166569 9.07533C-0.0349001 9.37974 0.0342882 9.69228 0.209497 9.94641C0.294982 10.0712 0.404587 10.1776 0.531841 10.2593C0.659095 10.341 0.801415 10.3964 0.950403 10.4221C1.09939 10.4479 1.25203 10.4435 1.39929 10.4092C1.54656 10.375 1.68547 10.3115 1.80784 10.2227L12.1432 2.8134L22.5173 10.3304C22.7097 10.4707 22.9417 10.5461 23.1798 10.5459C23.3639 10.5456 23.5451 10.5007 23.7081 10.4151C23.871 10.3295 24.0109 10.2056 24.1156 10.0542C24.2901 9.801 24.3592 9.48976 24.3081 9.18649C24.2571 8.88321 24.09 8.61177 23.8423 8.42975Z" fill="#EA5B0C"/>
<path d="M19.7288 10.9852C19.447 10.9798 19.1743 11.0843 18.9682 11.2766C18.7621 11.469 18.6388 11.734 18.6246 12.0156V21.4084C18.6246 24.171 17.8571 26.9916 12.1622 26.9916C6.46722 26.9916 5.70256 24.1683 5.70256 21.4084V12.0156C5.70256 11.7225 5.58622 11.4415 5.37914 11.2342C5.17206 11.027 4.8912 10.9106 4.59835 10.9106C4.30549 10.9106 4.02464 11.027 3.81756 11.2342C3.61048 11.4415 3.49414 11.7225 3.49414 12.0156V21.4084C3.49414 23.6903 4.04624 25.3949 5.18082 26.6159C6.60801 28.1492 8.89372 28.8951 12.1649 28.8951C15.4362 28.8951 17.7246 28.1492 19.1518 26.6159C20.2864 25.3949 20.8385 23.6903 20.8385 21.4084V12.0156C20.8249 11.7328 20.7011 11.4665 20.4937 11.2739C20.2862 11.0813 20.0116 10.9776 19.7288 10.9852Z" fill="#8BB31D"/>
</svg>
