<svg width="161" height="29" viewBox="0 0 161 29" fill="none" xmlns="http://www.w3.org/2000/svg">
<path d="M5.86512 14.756C5.86512 15.114 6.45394 15.3587 6.78876 15.2318L8.32432 14.6495C8.73072 14.4977 8.78614 14.1692 8.78614 13.7433V11.4777C10.0665 11.1406 11.1787 10.3589 11.9159 9.27788C12.6532 8.19688 12.9655 6.89004 12.7948 5.60015C12.6241 4.31026 11.982 3.12502 10.9877 2.26463C9.99353 1.40424 8.7148 0.927193 7.38913 0.922119C6.67155 0.92241 5.96109 1.06175 5.29853 1.33215C4.63597 1.60254 4.03437 1.99867 3.52825 2.49779C3.02213 2.9969 2.62146 3.58918 2.34924 4.24063C2.07702 4.89207 1.93861 5.58985 1.94195 6.29392C1.94195 6.38681 1.94195 6.48196 1.94195 6.57259C1.95526 6.83694 1.99001 7.09982 2.04586 7.35876C2.04586 7.38821 2.04586 7.41767 2.06203 7.44712C2.49845 9.41142 3.89084 10.977 5.85589 11.4867L5.86512 14.756ZM7.40529 9.10556C6.85726 9.10556 6.32153 8.94611 5.86585 8.64737C5.41017 8.34863 5.05502 7.92401 4.84529 7.42723C4.63557 6.93044 4.5807 6.38379 4.68761 5.85641C4.79453 5.32902 5.05843 4.84458 5.44596 4.46436C5.83348 4.08414 6.32721 3.8252 6.86471 3.7203C7.40222 3.61539 7.95936 3.66923 8.46568 3.87501C8.972 4.08078 9.40476 4.42925 9.70923 4.87635C10.0137 5.32345 10.1762 5.84909 10.1762 6.38681C10.1762 7.1063 9.88556 7.79645 9.3679 8.30606C8.85025 8.81566 8.14782 9.10316 7.41453 9.10556H7.40529Z M8.77471 16.2989V18.3085C8.77471 18.927 8.60614 19.1468 8.01732 19.3711L4.00179 20.8437C3.4476 21.0522 2.97193 21.0907 2.59323 20.8913L1.20777 20.3022C0.683603 20.0983 0.658203 19.7494 0.658203 19.1989V18.7911C0.658203 18.2179 1.0623 18.0502 1.60955 17.8463L7.81412 15.5807C8.45605 15.3473 8.77471 15.6192 8.77471 16.2989Z M8.77444 20.7191V23.2725C8.78879 23.4186 8.75043 23.5651 8.66605 23.6864C8.58166 23.8077 8.4566 23.8961 8.31262 23.9363L3.5651 25.6423C3.42212 25.7062 3.26634 25.7377 3.10926 25.7346C2.95218 25.7315 2.79783 25.6937 2.65762 25.6242L1.04125 24.9943C0.926922 24.9499 0.828827 24.8728 0.759664 24.773C0.690501 24.6732 0.653454 24.5554 0.65332 24.4347V23.2407C0.65342 23.118 0.691728 22.9982 0.763118 22.8974C0.834507 22.7965 0.935574 22.7195 1.0528 22.6766L7.95009 20.164C8.04198 20.1312 8.14053 20.1203 8.23755 20.1324C8.33457 20.1445 8.42725 20.1791 8.50788 20.2334C8.58851 20.2877 8.65476 20.3601 8.70113 20.4446C8.74749 20.529 8.77263 20.6232 8.77444 20.7191Z M8.83713 25.2821L8.8048 27.6406C8.8048 28.0711 8.57389 28.1753 8.17442 28.0076L5.15642 26.7344C4.64841 26.5214 4.6184 25.9278 5.38733 25.7647L8.17442 24.761C8.57851 24.6069 8.83713 24.8607 8.83713 25.2821Z" fill="#FF5500"/>
<path d="M23.7837 12.1913C22.8769 12.1793 21.9721 12.2805 21.0913 12.4927C20.2978 12.6965 19.5248 12.971 18.7822 13.3128L18.5929 13.3989L19.3503 15.438L19.5812 15.3338C20.1886 15.0524 20.8188 14.8213 21.4654 14.6427C22.156 14.4624 22.8683 14.3748 23.5828 14.3822C24.7882 14.3822 25.7349 14.6699 26.393 15.2363C27.0511 15.8027 27.3744 16.6478 27.3744 17.7693V17.9392C26.8479 17.8033 26.3053 17.69 25.758 17.6016C24.9937 17.4898 24.2216 17.4375 23.4489 17.4453C22.6412 17.4378 21.836 17.5353 21.0544 17.7353C20.379 17.9046 19.7395 18.19 19.1655 18.5781C18.6291 18.9444 18.193 19.4346 17.8955 20.0055C17.5925 20.6145 17.4414 21.2854 17.4545 21.963C17.4404 22.6321 17.5993 23.2939 17.9163 23.8865C18.2157 24.4201 18.6293 24.8838 19.1286 25.2459C19.6378 25.6152 20.2102 25.8922 20.8188 26.0638C21.4374 26.2382 22.0779 26.3266 22.7215 26.3266C23.9569 26.3266 25.0006 26.0841 25.825 25.6061C26.3924 25.2807 26.9134 24.883 27.3744 24.4234V26.0547H29.7574V17.7376C29.7574 15.9251 29.2332 14.5295 28.1987 13.5938C27.1643 12.6581 25.6795 12.1913 23.7837 12.1913ZM27.3929 20.9638C27.3989 21.4312 27.287 21.8927 27.0673 22.3073C26.8451 22.7169 26.5384 23.0764 26.1667 23.3631C25.7569 23.6726 25.2962 23.9109 24.8044 24.0677C24.261 24.2418 23.6926 24.329 23.121 24.326C22.7069 24.3269 22.2948 24.2697 21.8972 24.1561C21.5347 24.0528 21.1938 23.8871 20.8904 23.6667C20.6115 23.4632 20.3801 23.2037 20.2115 22.9055C20.0425 22.5918 19.9582 22.2407 19.9668 21.8859C19.9525 21.5274 20.0294 21.1711 20.1907 20.8491C20.3519 20.5271 20.5924 20.2496 20.8904 20.0417C21.5231 19.5886 22.456 19.3439 23.6613 19.3439C24.3926 19.3373 25.1229 19.3957 25.8435 19.5184C26.4138 19.6226 26.931 19.7449 27.3882 19.8537L27.3929 20.9638Z M43.6235 14.4569C43.4642 14.2666 43.2933 14.0786 43.1132 13.8951C42.7598 13.5405 42.3644 13.2286 41.9356 12.9662C41.4789 12.69 40.9865 12.4751 40.4716 12.3272C39.8909 12.1626 39.2888 12.0817 38.6843 12.0871C37.8386 12.0876 37.0015 12.2548 36.2228 12.5787C35.4268 12.9091 34.7026 13.3859 34.0892 13.9834C33.4403 14.6228 32.927 15.382 32.5791 16.2173C32.1882 17.1725 31.9958 18.1947 32.0133 19.2238C31.9956 20.2522 32.188 21.2737 32.5791 22.228C32.9263 23.0636 33.4397 23.823 34.0892 24.4619C34.7014 25.059 35.4271 25.5324 36.2251 25.8553C37.0054 26.1698 37.8408 26.3314 38.6843 26.3311C39.2851 26.3382 39.8836 26.2572 40.46 26.0909C40.9763 25.9399 41.4672 25.7155 41.9171 25.4248C42.3458 25.143 42.7401 24.8138 43.0924 24.4438C43.2771 24.2467 43.4549 24.0428 43.6235 23.8366V26.0547H46.0873V6.91693H43.6235V14.4569ZM43.3164 21.213C43.078 21.7923 42.7221 22.318 42.2704 22.7582C41.8376 23.1742 41.3303 23.5083 40.7741 23.7437C40.2261 23.9712 39.6372 24.0884 39.0422 24.0884C38.4473 24.0884 37.8584 23.9712 37.3104 23.7437C36.7667 23.5193 36.2767 23.186 35.8718 22.765C35.4465 22.3162 35.1126 21.7917 34.8882 21.2198C34.6382 20.5684 34.5152 19.8767 34.5256 19.1808C34.5151 18.4745 34.638 17.7723 34.8882 17.11C35.1039 16.541 35.4337 16.0202 35.858 15.5784C36.2601 15.1706 36.7446 14.8496 37.2804 14.6359C37.8429 14.4157 38.4436 14.3049 39.0492 14.3097C39.6418 14.3098 40.2281 14.4293 40.7718 14.6608C41.328 14.8963 41.8353 15.2304 42.2681 15.6464C42.7171 16.0835 43.0727 16.6042 43.3141 17.1779C43.5774 17.8137 43.7085 18.4946 43.6997 19.1808C43.7107 19.8764 43.5804 20.5673 43.3164 21.213Z M60.9741 14.1896C60.3109 13.5388 59.5271 13.0182 58.665 12.6558C57.3102 12.08 55.8096 11.9197 54.3603 12.1959C52.9109 12.472 51.5806 13.1718 50.5439 14.2032C49.8938 14.8612 49.3815 15.6378 49.036 16.4892C48.677 17.3694 48.4958 18.3097 48.5026 19.2578C48.4986 20.1989 48.6821 21.1318 49.043 22.0037C49.3894 22.8492 49.9026 23.6191 50.5531 24.2694C51.209 24.9184 51.9848 25.4389 52.8391 25.8032C53.7501 26.1862 54.7321 26.3798 55.7232 26.3719C56.7216 26.3785 57.7109 26.1849 58.6304 25.8032C59.5053 25.4404 60.2974 24.9097 60.9602 24.2422C61.9536 23.2264 62.6268 21.9507 62.8988 20.5685C63.1708 19.1862 63.0301 17.7563 62.4935 16.4507C62.1425 15.6068 61.6263 14.8386 60.9741 14.1896ZM60.1567 21.1609C59.936 21.7334 59.606 22.2594 59.1845 22.7106C58.7642 23.1511 58.2566 23.5027 57.6929 23.7437C57.0877 23.9988 56.4349 24.1269 55.7763 24.1198C55.1255 24.1262 54.4811 23.994 53.8875 23.7324C53.3196 23.482 52.8067 23.1257 52.3773 22.6834C51.9465 22.2298 51.6086 21.699 51.3821 21.1202C51.1414 20.5028 51.0223 19.8462 51.0311 19.1853C51.0262 18.5279 51.1444 17.8751 51.3798 17.2595C51.6008 16.6845 51.9272 16.1539 52.3427 15.694C52.7522 15.2464 53.2556 14.8909 53.8182 14.6518C54.4229 14.395 55.0759 14.2661 55.7347 14.2734C56.3856 14.2683 57.0299 14.4012 57.6236 14.6631C58.196 14.9165 58.7128 15.2767 59.1453 15.7234C59.5833 16.1829 59.926 16.7215 60.1544 17.3094C60.3914 17.9244 60.5081 18.5777 60.4984 19.2352C60.5053 19.8922 60.3895 20.5449 60.1567 21.1609Z M76.2284 13.6323C75.7547 13.1338 75.1754 12.7433 74.5312 12.4881C73.8127 12.2126 73.0466 12.0765 72.2753 12.0871C71.0676 12.0871 70.0677 12.3545 69.3011 12.8846C68.7659 13.25 68.2882 13.6904 67.8833 14.1919V12.3794H65.4126V26.0547H67.8741V18.2496C67.8682 17.7 67.9652 17.154 68.1604 16.6388C68.3381 16.1787 68.61 15.7592 68.9594 15.4063C69.303 15.0622 69.7158 14.7922 70.1717 14.6133C70.6558 14.425 71.1726 14.3303 71.6934 14.3346C72.8202 14.3346 73.693 14.6699 74.2888 15.3338C74.8845 15.9976 75.1963 16.9378 75.1963 18.1046V26.0547H77.6601V17.6107C77.6687 16.8541 77.5453 16.1016 77.2952 15.3859C77.066 14.7358 76.7028 14.1389 76.2284 13.6323Z M91.5308 14.4569C91.3714 14.2644 91.2006 14.0786 91.0204 13.8951C90.6665 13.541 90.2713 13.2292 89.8428 12.9661C89.3859 12.6903 88.8936 12.4754 88.3788 12.3272C87.798 12.1628 87.196 12.0819 86.5916 12.0871C85.7451 12.0876 84.9072 12.2548 84.1278 12.5787C83.3324 12.9091 82.609 13.386 81.9965 13.9834C81.346 14.6216 80.8325 15.3812 80.4863 16.2173C80.0954 17.1725 79.9031 18.1947 79.9206 19.2238C79.9028 20.2522 80.0952 21.2737 80.4863 22.228C80.8317 23.0666 81.3452 23.8286 81.9965 24.4687C82.6074 25.0663 83.3324 25.5397 84.1301 25.8621C84.911 26.1769 85.7473 26.3385 86.5916 26.3379C87.1923 26.3448 87.7908 26.2639 88.3673 26.0977C88.8826 25.9461 89.3726 25.7218 89.822 25.4316C90.2512 25.1504 90.6456 24.8211 90.9974 24.4506C91.1844 24.2535 91.3622 24.0496 91.5308 23.8434V26.0547H93.9946V6.91693H91.5308V14.4569ZM91.2213 21.213C90.9838 21.7922 90.6287 22.3179 90.1776 22.7582C89.7448 23.1742 89.2376 23.5083 88.6813 23.7437C88.1333 23.9708 87.5444 24.0878 86.9495 24.0878C86.3546 24.0878 85.7657 23.9708 85.2177 23.7437C84.6746 23.5193 84.1854 23.1859 83.7814 22.765C83.3551 22.3169 83.0211 21.7922 82.7977 21.2198C82.5477 20.5684 82.4248 19.8767 82.4352 19.1808C82.4246 18.4745 82.5476 17.7723 82.7977 17.11C83.0134 16.541 83.3432 16.0202 83.7675 15.5784C84.1697 15.1706 84.6541 14.8496 85.1899 14.6359C85.7516 14.4157 86.3516 14.3049 86.9564 14.3097C87.5498 14.3098 88.1369 14.4293 88.6813 14.6608C89.2376 14.8963 89.7448 15.2304 90.1776 15.6464C90.6264 16.0846 90.982 16.606 91.2236 17.1802C91.487 17.8151 91.6181 18.4953 91.6093 19.1808C91.6196 19.8768 91.4877 20.5678 91.2213 21.213Z M107.925 14.2145C107.362 13.5568 106.66 13.0265 105.868 12.6603C105.01 12.2847 104.082 12.0894 103.143 12.0871C102.204 12.0847 101.275 12.2754 100.416 12.6467C99.6106 13.0086 98.8887 13.5274 98.2939 14.1715C97.6902 14.8339 97.22 15.6027 96.9084 16.4371C96.5741 17.3269 96.4059 18.2686 96.412 19.217C96.4022 20.2103 96.592 21.1958 96.9708 22.117C97.319 22.9615 97.832 23.7311 98.4809 24.3826C99.1146 25.0081 99.869 25.5033 100.7 25.8394C101.556 26.1843 102.472 26.3599 103.397 26.356C104.553 26.3913 105.7 26.1494 106.738 25.6514C107.641 25.1794 108.449 24.5516 109.124 23.7981L109.274 23.6305L107.692 22.2394L107.54 22.3934C107.022 22.923 106.42 23.3668 105.757 23.7075C105.039 24.0501 104.246 24.2172 103.448 24.1946C102.896 24.1971 102.349 24.1019 101.831 23.9137C101.32 23.7281 100.849 23.4473 100.446 23.0867C100.021 22.7098 99.6733 22.256 99.4231 21.75C99.1818 21.2497 99.0258 20.7139 98.9612 20.164H109.583L109.611 19.9737C109.628 19.8529 109.638 19.731 109.639 19.609V19.3258C109.645 18.374 109.501 17.4271 109.211 16.5187C108.939 15.6759 108.503 14.8932 107.925 14.2145ZM98.9543 18.2587C99.0253 17.7486 99.1658 17.2502 99.3723 16.7769C99.5882 16.2772 99.8896 15.8175 100.264 15.4176C100.618 15.0384 101.043 14.7306 101.517 14.5113C101.999 14.2916 102.524 14.1801 103.055 14.1851C103.606 14.17 104.153 14.2773 104.655 14.499C105.157 14.7206 105.602 15.0509 105.956 15.4651C106.3 15.8677 106.568 16.3283 106.745 16.8245C106.911 17.2835 107.024 17.7592 107.082 18.2428L98.9543 18.2587Z M116.912 22.9848L112.523 12.3703H109.81L115.848 26.1521H117.921L123.987 12.3703H121.325L116.912 22.9848Z M128.592 7.29987H125.842V9.92119H128.592V7.29987Z M128.437 12.3703H125.973V26.0524H128.437V12.3703Z M137.523 22.9848L133.136 12.3703H130.42L136.461 26.1521H138.535L144.601 12.3703H141.938L137.523 22.9848Z M149.205 7.29987H146.455V9.92119H149.205V7.29987Z M149.05 12.3703H146.586V26.0524H149.05V12.3703Z M160.229 12.1392C159.596 12.1175 158.963 12.1986 158.356 12.3793C157.781 12.5549 157.239 12.8212 156.751 13.1678C156.261 13.5166 155.824 13.9315 155.451 14.4003C155.267 14.6336 155.097 14.8772 154.941 15.1298V12.3703H152.482V26.0547H154.941V20.5537C154.926 19.6877 155.063 18.8255 155.345 18.0049C155.581 17.3278 155.955 16.705 156.444 16.1743C156.898 15.695 157.454 15.3204 158.072 15.0777C158.706 14.831 159.381 14.7056 160.063 14.7084H160.446V12.1437L160.229 12.1392Z" fill="black"/>
</svg>
