<?xml version="1.0" standalone="no"?>
<!DOCTYPE svg PUBLIC "-//W3C//DTD SVG 20010904//EN"
 "http://www.w3.org/TR/2001/REC-SVG-20010904/DTD/svg10.dtd">
<svg version="1.0" xmlns="http://www.w3.org/2000/svg"
 width="512.000000pt" height="512.000000pt" viewBox="0 0 512.000000 512.000000"
 preserveAspectRatio="xMidYMid meet">

<g transform="translate(0.000000,512.000000) scale(0.100000,-0.100000)"
fill="#000000" stroke="none">
<path d="M1388 3850 c-639 -473 -1164 -864 -1165 -868 -1 -4 47 -40 107 -79
l109 -72 1061 784 1060 784 1061 -784 1060 -784 109 72 c60 40 108 75 107 79
-3 10 -2326 1728 -2337 1728 -4 0 -532 -387 -1172 -860z"/>
<path d="M1550 3376 l-1005 -743 -3 -1116 -2 -1117 2020 0 2020 0 -1 1118 0
1117 -999 738 c-550 406 -1005 740 -1012 742 -7 3 -465 -330 -1018 -739z
m1893 -192 c474 -351 872 -646 885 -657 l22 -20 0 -934 0 -933 -1785 0 -1785
0 0 939 0 938 888 657 c488 361 893 654 900 651 7 -3 401 -291 875 -641z"/>
<path d="M2420 3024 c-180 -38 -357 -177 -439 -344 -45 -92 -70 -193 -71 -280
0 -52 -2 -56 -33 -70 l-32 -15 0 -586 0 -585 28 -42 c15 -23 46 -54 69 -69
l42 -28 576 0 576 0 42 28 c23 15 54 46 69 69 l28 42 0 585 0 586 -32 15 c-31
14 -33 18 -33 70 -1 87 -26 188 -71 280 -83 169 -260 307 -444 345 -86 18
-189 18 -275 -1z m322 -241 c154 -72 258 -229 258 -389 l0 -54 -440 0 -440 0
0 53 c0 180 123 345 305 410 38 13 73 17 150 14 88 -2 108 -6 167 -34z m-81
-789 c77 -72 77 -177 1 -241 l-27 -23 117 -235 118 -235 -310 0 -310 0 118
235 117 235 -27 23 c-41 34 -61 83 -55 135 6 51 29 87 78 120 28 20 44 23 92
20 46 -4 63 -10 88 -34z"/>
</g>
</svg>
